<svg width="80" height="80" viewBox="0 0 80 80" fill="none" xmlns="http://www.w3.org/2000/svg">
<circle cx="40" cy="40" r="40" fill="#7F977B" fill-opacity="0.2"/>
<path d="M7.53931 75.2002H53.3538C55.158 75.2002 56.6263 73.7308 56.6263 71.9252V55.5502C56.6263 55.5283 56.6153 55.5109 56.6132 55.489C56.7332 55.4126 56.8575 55.3406 56.9753 55.2598L74.3979 72.6959C74.4984 72.8003 74.6186 72.8836 74.7516 72.941C74.8846 72.9984 75.0277 73.0287 75.1726 73.0302C75.3174 73.0316 75.4611 73.0042 75.5952 72.9495C75.7293 72.8948 75.8512 72.8139 75.9538 72.7116C76.0564 72.6092 76.1375 72.4875 76.1926 72.3534C76.2476 72.2193 76.2754 72.0756 76.2744 71.9306C76.2733 71.7857 76.2434 71.6424 76.1864 71.5091C76.1295 71.3759 76.0465 71.2553 75.9425 71.1544L58.6792 53.8777C60.0958 52.555 61.2255 50.9549 61.9982 49.1769C62.771 47.3988 63.1702 45.4808 63.1712 43.5418C63.1691 41.1594 62.5671 38.8159 61.4209 36.7278C60.2747 34.6397 58.6212 32.8743 56.6132 31.5946C56.6153 31.5728 56.6263 31.5553 56.6263 31.5335V26.0752C56.6263 26.038 56.6088 26.0075 56.6066 25.9725C56.6023 25.9223 56.5892 25.8787 56.5783 25.8306C56.544 25.6789 56.477 25.5366 56.3819 25.4136C56.3666 25.394 56.3688 25.3699 56.3535 25.3503L38.9004 5.7003C38.8939 5.69375 38.8851 5.69375 38.8786 5.6872C38.7457 5.54758 38.5776 5.4465 38.3921 5.39463C38.3506 5.38153 38.3136 5.37716 38.2699 5.37061C38.2067 5.3597 38.1477 5.3335 38.0823 5.3335H7.53931C5.73509 5.3335 4.26685 6.80288 4.26685 8.6085V71.9252C4.26685 73.7308 5.73509 75.2002 7.53931 75.2002ZM60.9895 43.5418C60.9895 50.1639 55.6052 55.5502 48.9905 55.5502C42.3758 55.5502 36.9915 50.1639 36.9915 43.5418C36.9915 36.9198 42.3758 31.5335 48.9905 31.5335C55.6052 31.5335 60.9895 36.9198 60.9895 43.5418ZM39.1731 9.29625L53.1073 24.9835H40.2639C39.784 24.9835 39.1731 24.0665 39.1731 23.346V9.29625ZM6.44849 8.6085C6.44849 8.31897 6.56341 8.0413 6.76798 7.83657C6.97255 7.63184 7.25001 7.51683 7.53931 7.51683H36.9915V23.346C36.9915 25.1123 38.4205 27.1668 40.2639 27.1668H54.4446V30.444C51.8095 29.3409 48.9021 29.0631 46.106 29.6474C43.3099 30.2317 40.7565 31.6506 38.7826 33.7168H16.2659C15.9766 33.7168 15.6991 33.8318 15.4946 34.0366C15.29 34.2413 15.1751 34.519 15.1751 34.8085C15.1751 35.098 15.29 35.3757 15.4946 35.5804C15.6991 35.7852 15.9766 35.9002 16.2659 35.9002H37.0613C35.797 37.8669 35.0426 40.1182 34.8666 42.4502H16.2659C15.9766 42.4502 15.6991 42.5652 15.4946 42.7699C15.29 42.9746 15.1751 43.2523 15.1751 43.5418C15.1751 43.8314 15.29 44.109 15.4946 44.3138C15.6991 44.5185 15.9766 44.6335 16.2659 44.6335H34.8644C35.0415 46.9653 35.7958 49.2162 37.0591 51.1835H16.2659C15.9766 51.1835 15.6991 51.2985 15.4946 51.5032C15.29 51.708 15.1751 51.9856 15.1751 52.2752C15.1751 52.5647 15.29 52.8424 15.4946 53.0471C15.6991 53.2518 15.9766 53.3668 16.2659 53.3668H38.6277C38.6735 53.3668 38.7128 53.3472 38.7586 53.3406C40.7318 55.4156 43.2881 56.8419 46.0892 57.4306C48.8904 58.0193 51.8041 57.7427 54.4446 56.6375V71.9252C54.4446 72.2147 54.3297 72.4924 54.1251 72.6971C53.9206 72.9018 53.6431 73.0168 53.3538 73.0168H7.53931C6.92845 73.0168 6.44849 72.5365 6.44849 71.9252V8.6085Z" fill="#7F977B"/>
<path d="M16.2668 27.1667H29.3567C29.646 27.1667 29.9235 27.0517 30.128 26.847C30.3326 26.6423 30.4475 26.3646 30.4475 26.0751C30.4475 25.7855 30.3326 25.5079 30.128 25.3031C29.9235 25.0984 29.646 24.9834 29.3567 24.9834H16.2668C15.9775 24.9834 15.7001 25.0984 15.4955 25.3031C15.291 25.5079 15.176 25.7855 15.176 26.0751C15.176 26.3646 15.291 26.6423 15.4955 26.847C15.7001 27.0517 15.9775 27.1667 16.2668 27.1667Z" fill="#7F977B"/>
<path d="M16.2668 62.1003H44.6282C44.9175 62.1003 45.195 61.9853 45.3995 61.7806C45.6041 61.5759 45.719 61.2982 45.719 61.0087C45.719 60.7191 45.6041 60.4415 45.3995 60.2367C45.195 60.032 44.9175 59.917 44.6282 59.917H16.2668C15.9775 59.917 15.7001 60.032 15.4955 60.2367C15.291 60.4415 15.176 60.7191 15.176 61.0087C15.176 61.2982 15.291 61.5759 15.4955 61.7806C15.7001 61.9853 15.9775 62.1003 16.2668 62.1003Z" fill="#7F977B"/>
</svg>
