<svg width="31" height="30" viewBox="0 0 31 30" fill="none" xmlns="http://www.w3.org/2000/svg">
<path fill-rule="evenodd" clip-rule="evenodd" d="M8.34804 14.2C8.34804 11.1072 10.8552 8.59999 13.948 8.59999C17.0408 8.59999 19.548 11.1072 19.548 14.2C19.548 17.2928 17.0408 19.8 13.948 19.8C10.8552 19.8 8.34804 17.2928 8.34804 14.2ZM13.948 7C9.97159 7 6.74805 10.2235 6.74805 14.2C6.74805 18.1764 9.97159 21.4 13.948 21.4C16.2098 21.4 18.2281 20.357 19.548 18.7258C19.5495 18.9286 19.6276 19.1309 19.7823 19.2856L23.2623 22.7656C23.5747 23.0781 24.0813 23.0781 24.3937 22.7656C24.7061 22.4532 24.7061 21.9467 24.3937 21.6343L20.9137 18.1543C20.6902 17.9308 20.3673 17.8672 20.0873 17.9635C20.76 16.8683 21.148 15.5795 21.148 14.2C21.148 10.2235 17.9245 7 13.948 7Z" fill="white"/>
</svg>
